# xmcd
#
# Track frame offsets: 
#        150
#        14099
#        31493
#        50770
#
# Disc length: 943 seconds
#
# Revision: 0
# Processed by: cddbd v1.5.2PL0 Copyright (c) Steve Scherf et al.
# Submitted via: ExactAudioCopy v0.99pb4
#
DISCID=3303ad04
DTITLE=de Dijk - Brussel - Bonus CD
DYEAR=2008
DGENRE=Blues
TTITLE0=Ik Heb Je In Mijn Hoofd Gehaald
TTITLE1=Achter Die Deur
TTITLE2=Kapitein Rob
TTITLE3=Mira
EXTD=
EXTT0=
EXTT1=
EXTT2=
EXTT3=
PLAYORDER=
